<svg width="136" height="137" viewBox="0 0 136 137" fill="none" xmlns="http://www.w3.org/2000/svg">
<g clip-path="url(#clip0_3_2)">
<path d="M127.637 137H7.33696C6.50328 137 5.80607 136.483 5.51334 135.702L1.46231 124.899C0.74308 122.982 2.11487 120.923 4.16187 120.848L132.475 116.165C134.622 116.087 136.155 118.219 135.39 120.227L129.49 135.715C129.194 136.49 128.467 137 127.637 137Z" fill="#182229"/>
<path d="M54.8572 10.1355L17.5134 112.591C17.2691 113.262 17.785 113.965 18.4976 113.933L49.5933 112.541C50.1077 112.518 50.5204 112.108 50.5472 111.594L55.8263 10.3327C55.8562 9.75927 55.0538 9.59595 54.8572 10.1355Z" fill="#182229"/>
<path d="M124.719 108.337C139.485 63.2821 123.863 39.6691 64.6967 0.784667C64.3033 0.526106 63.7898 0.90935 63.9317 1.35824C79.1205 49.4014 78.3776 75.075 60.3028 110.445C59.9519 111.131 60.4657 111.955 61.236 111.92L123.814 109.032C124.227 109.013 124.59 108.73 124.719 108.337Z" fill="#182229"/>
</g>
<defs>
<clipPath id="clip0_3_2">
<rect width="136" height="137" fill="white"/>
</clipPath>
</defs>
</svg>
